<svg width="45" height="44" viewBox="0 0 45 44" fill="none" xmlns="http://www.w3.org/2000/svg">
<path d="M37.3622 0H8.02888C3.87333 0 0.695557 3.17778 0.695557 7.33333V36.6666C0.695557 40.8222 3.87333 44 8.02888 44H37.3622C41.5177 44 44.6955 40.8222 44.6955 36.6666V7.33333C44.6955 3.17778 41.5177 0 37.3622 0ZM22.6955 14.6667C26.8511 14.6667 30.0289 17.8444 30.0289 22C30.0289 26.1555 26.8511 29.3333 22.6955 29.3333C18.54 29.3333 15.3622 26.1555 15.3622 22C15.3622 17.8444 18.54 14.6667 22.6955 14.6667ZM31.9844 9.77777C31.9844 8.06666 33.4511 6.84444 34.9178 6.84444C36.3844 6.84444 37.8511 8.31111 37.8511 9.77777C37.8511 11.2444 36.6289 12.7111 34.9178 12.7111C33.2066 12.7111 31.9844 11.4889 31.9844 9.77777ZM37.3622 39.1111H8.02888C6.56222 39.1111 5.58444 38.1333 5.58444 36.6666V22H10.4733C10.4733 28.8444 15.8511 34.2222 22.6955 34.2222C29.54 34.2222 34.9178 28.8444 34.9178 22H39.8066V36.6666C39.8066 38.1333 38.8289 39.1111 37.3622 39.1111Z" fill="#F8F8F8"/>
</svg>
