<svg width="68" height="80" viewBox="0 0 68 80" fill="none" xmlns="http://www.w3.org/2000/svg">
<path d="M67.0119 31.7031C67.6378 21.7012 65.6782 11.711 61.322 2.69568L60.5463 1.09284L58.7699 0.968728C48.6216 0.249991 38.4587 2.21883 29.3037 6.67715C20.1487 11.1355 12.3245 17.926 6.61852 26.3655C6.24657 26.9152 5.87835 27.4799 5.52385 28.0439C0.718491 35.6915 -0.684441 43.9134 1.46683 51.8207C3.11293 57.8718 6.76497 63.357 11.8732 67.5327L5.90619 76.3507L11.0027 79.7995L38.6423 38.9539L33.5452 35.5047L15.3497 62.3939C7.41528 55.5679 2.9688 43.6751 10.7345 31.3168C11.0518 30.8116 11.3814 30.3059 11.7144 29.8138C16.6594 22.5388 23.3635 16.6329 31.2011 12.6472C39.0387 8.66155 47.7543 6.72605 56.5345 7.02135C60.0733 15.0622 61.5172 23.8725 60.7314 32.6301C59.9457 41.3877 56.956 49.807 52.0413 57.1024C51.7083 57.5945 51.3615 58.0886 51.0103 58.5711C44.143 68.0141 34.6457 70.0904 26.3666 68.0724L22.7101 73.476C26.8026 74.8242 31.1385 75.2752 35.4236 74.7982C43.5638 73.8551 50.6745 69.4956 55.9869 62.1913C56.3787 61.6525 56.766 61.1007 57.1379 60.551C62.9413 51.9847 66.3506 42.0241 67.0119 31.7031Z" fill="#09283D"/>
</svg>
