<svg width="46" height="43" viewBox="0 0 46 43" fill="none" xmlns="http://www.w3.org/2000/svg">
<path d="M34.1036 32.1802H37.8047V42.907H8.19551V32.1802H11.8967V35.7558H34.1036V32.1802ZM45.0071 23.6775C45.1219 24.1137 45.207 24.5607 45.207 25.0291C45.207 25.7334 45.0634 26.4308 44.7844 27.0815C44.5054 27.7323 44.0965 28.3235 43.5809 28.8215C43.0654 29.3196 42.4534 29.7146 41.7798 29.9842C41.1063 30.2537 40.3843 30.3924 39.6553 30.3924C38.9262 30.3924 38.2043 30.2537 37.5307 29.9842C36.8572 29.7146 36.2451 29.3196 35.7296 28.8215C35.2141 28.3235 34.8052 27.7323 34.5262 27.0815C34.2472 26.4308 34.1036 25.7334 34.1036 25.0291C34.1036 26.4515 33.5186 27.8157 32.4775 28.8215C31.4363 29.8274 30.0242 30.3924 28.5518 30.3924C27.0794 30.3924 25.6673 29.8274 24.6262 28.8215C23.585 27.8157 23.0001 26.4515 23.0001 25.0291C23.0001 26.4515 22.4152 27.8157 21.374 28.8215C20.3329 29.8274 18.9208 30.3924 17.4484 30.3924C15.976 30.3924 14.5639 29.8274 13.5227 28.8215C12.4816 27.8157 11.8967 26.4515 11.8967 25.0291C11.8967 25.7334 11.7531 26.4308 11.4741 27.0815C11.1951 27.7323 10.7861 28.3235 10.2706 28.8215C9.75507 29.3196 9.14306 29.7146 8.46949 29.9842C7.79592 30.2537 7.074 30.3924 6.34494 30.3924C5.61587 30.3924 4.89395 30.2537 4.22038 29.9842C3.54682 29.7146 2.9348 29.3196 2.41928 28.8215C1.90375 28.3235 1.49481 27.7323 1.21581 27.0815C0.936813 26.4308 0.793213 25.7334 0.793213 25.0291C0.793213 24.5607 0.874638 24.1137 0.989374 23.6775L4.49436 0H41.5059L45.0071 23.6775Z" fill="#87BD43"/>
</svg>
