<svg width="87" height="82" viewBox="0 0 87 82" fill="none" xmlns="http://www.w3.org/2000/svg">
<path d="M47.3724 39.0522C47.1735 38.6911 46.9253 38.3592 46.6348 38.0662L43.3192 34.8055C42.9786 34.4598 42.5765 34.1804 42.1332 33.9817C41.4358 33.6715 40.6605 33.5791 39.9093 33.7164C39.1581 33.8538 38.4662 34.2146 37.9245 34.7514C36.7747 35.8798 34.6704 37.9382 30.8739 41.6785C23.6136 48.8399 10.1324 60.843 4.03628 65.9621C3.72914 66.2184 3.47871 66.5355 3.30087 66.8932C3.12302 67.251 3.02162 67.6417 3.0031 68.0406C2.98457 68.4395 3.04932 68.8378 3.19325 69.2104C3.33718 69.5831 3.55714 69.9218 3.83922 70.2053L10.8899 77.3127C11.1738 77.5967 11.5136 77.819 11.8878 77.9658C12.2621 78.1125 12.6628 78.1805 13.0646 78.1654C13.4665 78.1504 13.8609 78.0526 14.2231 77.8782C14.5852 77.7039 14.9073 77.4567 15.1691 77.1522C20.4552 70.957 32.5787 57.5047 39.7559 50.4334C43.4421 46.8175 45.5085 44.741 46.6782 43.5946C47.2583 43.0064 47.6376 42.2509 47.7622 41.4354C47.8869 40.6199 47.7505 39.786 47.3724 39.0522ZM83.7121 30.7606L77.5094 24.632C77.4147 24.5377 77.3018 24.4636 77.1774 24.4143C77.0531 24.3651 76.92 24.3416 76.7862 24.3454C76.6527 24.3431 76.52 24.3673 76.3959 24.4165C76.2717 24.4657 76.1586 24.5389 76.0631 24.632C75.8399 24.8557 75.5681 25.0252 75.2688 25.1274C74.9694 25.2296 74.6504 25.2618 74.3366 25.2214C73.5266 25.1331 72.6643 24.8825 72.1075 24.3454C70.842 23.1089 72.3045 20.6754 71.1909 19.1181C69.9191 17.4138 68.5246 15.8041 67.0184 14.3017C65.742 13.0399 60.7252 8.26864 52.2753 4.83302C49.5788 3.73157 46.6924 3.1658 43.7784 3.16748C39.0147 3.16748 35.352 5.28726 34.016 6.50396C32.9529 7.46291 31.8465 8.98604 31.8465 8.98604C32.4854 8.75381 33.1381 8.56118 33.8008 8.40924C35.1829 8.11394 36.601 8.02344 38.0095 8.14066C40.8225 8.37319 44.2123 9.68903 46.031 11.113C48.9615 13.4563 50.2216 16.5909 50.4186 20.6358C50.5633 23.6442 47.6653 27.4421 44.9155 30.5389C44.6736 30.8112 44.5461 31.1659 44.5596 31.5294C44.5731 31.8929 44.7264 32.2373 44.9878 32.491L48.8277 36.3178C49.0952 36.5812 49.4551 36.7304 49.831 36.7337C50.207 36.7371 50.5695 36.5944 50.8417 36.3358C53.36 33.9006 56.4623 31.204 58.2213 30.1243C59.9804 29.0446 61.3995 28.7399 62.0811 28.666C63.4204 28.5368 64.7667 28.8279 65.9318 29.4988C66.137 29.6146 66.3246 29.759 66.4887 29.9278C67.6565 31.1103 67.586 33.0426 66.3983 34.207L66.0367 34.5477C65.9427 34.6399 65.868 34.7499 65.8171 34.8712C65.7661 34.9926 65.7398 35.1228 65.7398 35.2543C65.7398 35.3858 65.7661 35.516 65.8171 35.6373C65.868 35.7586 65.9427 35.8686 66.0367 35.9609L72.2395 42.0895C72.3346 42.1829 72.4477 42.2563 72.572 42.3053C72.6962 42.3542 72.8291 42.3777 72.9626 42.3743C73.2319 42.3781 73.4918 42.2757 73.6857 42.0895L83.7121 32.2026C83.897 32.0078 84 31.7498 84 31.4816C84 31.2134 83.897 30.9554 83.7121 30.7606Z" stroke="#09283D" stroke-width="6" stroke-linecap="round" stroke-linejoin="round"/>
</svg>
