<svg width="48" height="44" viewBox="0 0 48 44" fill="none" xmlns="http://www.w3.org/2000/svg">
<path d="M24.2681 20.9853V2" stroke="#87BD43" stroke-width="3" stroke-miterlimit="10" stroke-linecap="round"/>
<path d="M24.2519 21.2625L15.1082 14.8402" stroke="#87BD43" stroke-width="3" stroke-miterlimit="10" stroke-linecap="round"/>
<path d="M33.4279 14.8402L24.2788 21.2625" stroke="#87BD43" stroke-width="3" stroke-miterlimit="10" stroke-linecap="round"/>
<path d="M46.5 31.2913H1.5V42H46.5V31.2913Z" stroke="#87BD43" stroke-width="3" stroke-miterlimit="10" stroke-linecap="round"/>
<path d="M6.58931 36.0616C7.30904 36.0616 7.8925 35.4651 7.8925 34.7292C7.8925 33.9933 7.30904 33.3968 6.58931 33.3968C5.86959 33.3968 5.28613 33.9933 5.28613 34.7292C5.28613 35.4651 5.86959 36.0616 6.58931 36.0616Z" fill="white"/>
<path d="M14.4997 39.6587C15.2194 39.6587 15.8029 39.0621 15.8029 38.3263C15.8029 37.5904 15.2194 36.9938 14.4997 36.9938C13.78 36.9938 13.1965 37.5904 13.1965 38.3263C13.1965 39.0621 13.78 39.6587 14.4997 39.6587Z" fill="white"/>
<path d="M33.7255 39.6587C34.4453 39.6587 35.0287 39.0621 35.0287 38.3263C35.0287 37.5904 34.4453 36.9938 33.7255 36.9938C33.0058 36.9938 32.4224 37.5904 32.4224 38.3263C32.4224 39.0621 33.0058 39.6587 33.7255 39.6587Z" fill="white"/>
<path d="M23.9865 36.0616C24.7063 36.0616 25.2897 35.4651 25.2897 34.7292C25.2897 33.9933 24.7063 33.3968 23.9865 33.3968C23.2668 33.3968 22.6833 33.9933 22.6833 34.7292C22.6833 35.4651 23.2668 36.0616 23.9865 36.0616Z" fill="white"/>
<path d="M41.3354 36.0616C42.0551 36.0616 42.6386 35.4651 42.6386 34.7292C42.6386 33.9933 42.0551 33.3968 41.3354 33.3968C40.6157 33.3968 40.0322 33.9933 40.0322 34.7292C40.0322 35.4651 40.6157 36.0616 41.3354 36.0616Z" fill="white"/>
<path d="M1.5 27.2721H46.5" stroke="#87BD43" stroke-width="3" stroke-miterlimit="10" stroke-linecap="round"/>
</svg>
