<svg width="48" height="44" viewBox="0 0 48 44" fill="none" xmlns="http://www.w3.org/2000/svg">
<path d="M1.95742 0C1.05534 0 0.344849 0.628418 0.344849 1.4263C0.344849 2.22419 1.05534 2.8528 1.95742 2.8528C2.85951 2.8528 3.5701 2.22428 3.5701 1.4264C3.5701 0.628511 2.85951 0 1.95742 0ZM5.30675 2.45432C4.82153 3.67774 3.49889 4.56429 1.95742 4.56429C1.42904 4.56429 0.926616 4.45949 0.474412 4.27322L4.42176 8.92859L6.46058 8.13975L5.30675 2.45432ZM7.06957 9.77229L5.33556 10.4433L17.0672 36.8694L18.7667 36.1176L7.06957 9.77229ZM29.5469 28.2658V29.597H37.9325V28.2658H29.5469ZM29.5469 31.3087V35.6828H37.9325V31.3087H29.5469ZM13.7535 34.3515L13.2723 35.4152C13.8676 35.709 14.4038 36.0878 14.8593 36.5363L13.9329 34.3515H13.7535ZM20.085 34.3515L20.6494 35.6828H27.6119V34.3515H20.085ZM10.3031 36.4435C9.7519 36.4417 9.2058 36.5365 8.69623 36.7223C8.18665 36.908 7.72366 37.1811 7.33393 37.5258C6.9442 37.8705 6.63543 38.2801 6.42541 38.7308C6.21538 39.1815 6.10825 39.6645 6.11019 40.152C6.10827 40.6395 6.21541 41.1225 6.42544 41.5732C6.63547 42.0239 6.94424 42.4334 7.33397 42.7781C7.7237 43.1228 8.18668 43.3959 8.69625 43.5816C9.20582 43.7674 9.75191 43.8622 10.3031 43.8604C10.8542 43.8622 11.4003 43.7674 11.9099 43.5816C12.4195 43.3959 12.8824 43.1228 13.2722 42.7781C13.6619 42.4333 13.9707 42.0238 14.1807 41.5731C14.3907 41.1224 14.4979 40.6394 14.4959 40.1519C14.4978 39.6644 14.3907 39.1814 14.1807 38.7307C13.9706 38.28 13.6619 37.8705 13.2721 37.5258C12.8824 37.1811 12.4194 36.908 11.9099 36.7222C11.4003 36.5365 10.8542 36.4417 10.3031 36.4435ZM20.9463 37.3944V40.2471H46.5331V37.3943L20.9463 37.3944ZM19.0111 37.9233L16.3168 39.115C16.3925 39.4566 16.4308 39.8039 16.431 40.152C16.431 40.1838 16.4289 40.2153 16.4283 40.2471H19.0111V37.9233ZM20.5768 41.9587L19.8241 43.2899H47.6552L46.9026 41.9587H20.5768Z" fill="#7EB43A"/>
</svg>
