<svg width="46" height="41" viewBox="0 0 46 41" fill="none" xmlns="http://www.w3.org/2000/svg">
<path d="M45.5 35.8704C45.5 37.2295 44.9648 38.5328 44.0121 39.4938C43.0594 40.4548 41.7673 40.9947 40.4199 40.9947C39.0726 40.9947 37.7805 40.4548 36.8278 39.4938C35.8751 38.5328 35.3399 37.2295 35.3399 35.8704C35.3399 31.5568 39.3422 28.2773 39.5128 28.1382C39.7702 27.9303 40.0902 27.817 40.4199 27.817C40.7497 27.817 41.0697 27.9303 41.3271 28.1382C41.4976 28.2773 45.5 31.5568 45.5 35.8704ZM23.0915 21.3192C23.3952 21.0118 23.6019 20.6204 23.6852 20.1946C23.7686 19.7688 23.7251 19.3277 23.5601 18.9268C23.3951 18.526 23.116 18.1834 22.7581 17.9424C22.4003 17.7015 21.9796 17.5729 21.5494 17.5729C21.1191 17.5729 20.6984 17.7015 20.3406 17.9424C19.9827 18.1834 19.7037 18.526 19.5386 18.9268C19.3736 19.3277 19.3301 19.7688 19.4135 20.1946C19.4969 20.6204 19.7035 21.0118 20.0072 21.3192C20.2095 21.5239 20.4498 21.6864 20.7145 21.7972C20.9791 21.9081 21.2628 21.9651 21.5494 21.9651C21.8359 21.9651 22.1196 21.9081 22.3843 21.7972C22.6489 21.6864 22.8893 21.5239 23.0915 21.3192ZM40.7211 20.1003L21.2192 0.428482C20.947 0.15412 20.578 0 20.1932 0C19.8084 0 19.4394 0.15412 19.1672 0.428482L11.7993 7.86971L19.1345 15.267C20.2077 14.6812 21.454 14.5046 22.6457 14.7694C23.8373 15.0343 24.8946 15.723 25.6242 16.7096C26.3539 17.6961 26.7071 18.9147 26.6193 20.1423C26.5315 21.37 26.0086 22.5248 25.1461 23.3955C24.2837 24.2662 23.1394 24.7948 21.9224 24.8844C20.7054 24.974 19.4971 24.6188 18.5184 23.8837C17.5397 23.1486 16.856 22.0826 16.5924 20.8809C16.3287 19.6791 16.5027 18.4217 17.0825 17.3387L9.74731 9.93042L1.77525 17.9664C0.958719 18.7901 0.5 19.9073 0.5 21.0721C0.5 22.237 0.958719 23.3541 1.77525 24.1778L17.1769 39.7136C17.9935 40.5373 19.101 41 20.2558 41C21.4106 41 22.5181 40.5373 23.3346 39.7136L40.7211 22.1757C40.8566 22.0396 40.9641 21.8779 41.0375 21.6999C41.1109 21.5218 41.1486 21.3309 41.1486 21.138C41.1486 20.9452 41.1109 20.7542 41.0375 20.5762C40.9641 20.3981 40.8566 20.2364 40.7211 20.1003ZM7.33791 3.35666C7.06556 3.08194 6.69618 2.9276 6.31101 2.9276C5.92585 2.9276 5.55647 3.08194 5.28412 3.35666C5.01177 3.63138 4.85876 4.00399 4.85876 4.3925C4.85876 4.78102 5.01177 5.15362 5.28412 5.42835L9.74731 9.93042L11.7993 7.86971L7.33791 3.35666Z" fill="#87BD43"/>
</svg>
