<svg width="45" height="44" viewBox="0 0 45 44" fill="none" xmlns="http://www.w3.org/2000/svg">
<path d="M22.3477 0C17.9965 0 13.743 1.29028 10.1251 3.70767C6.50724 6.12506 3.68744 9.56098 2.02232 13.581C0.357188 17.6009 -0.0784846 22.0244 0.77039 26.292C1.61926 30.5595 3.71456 34.4796 6.79131 37.5563C9.86806 40.6331 13.7881 42.7284 18.0557 43.5772C22.3232 44.4261 26.7467 43.9904 30.7667 42.3253C34.7867 40.6602 38.2226 37.8404 40.64 34.2225C43.0574 30.6046 44.3476 26.3512 44.3476 22C44.3476 19.1109 43.7786 16.2501 42.673 13.581C41.5674 10.9118 39.9469 8.48653 37.904 6.44365C35.8611 4.40076 33.4358 2.78025 30.7667 1.67465C28.0975 0.569046 25.2367 0 22.3477 0ZM29.3436 33.3344C29.2615 33.5399 29.1364 33.7255 28.9766 33.8786C28.8169 34.0318 28.6262 34.149 28.4174 34.2224C28.2086 34.2957 27.9865 34.3235 27.766 34.3039C27.5456 34.2844 27.3319 34.2178 27.1392 34.1088L21.1663 29.4668L17.3339 33.0044C17.2449 33.0701 17.1409 33.1123 17.0313 33.1273C16.9218 33.1423 16.8102 33.1295 16.7069 33.0902L17.4417 26.5144L17.4637 26.5342L17.4791 26.4044C17.4791 26.4044 28.226 16.6188 28.6638 16.203C29.1082 15.7872 28.9608 15.697 28.9608 15.697C28.9872 15.191 28.1666 15.697 28.1666 15.697L13.9261 24.8578L7.99706 22.8382C7.99706 22.8382 7.08626 22.5126 7.00046 21.7932C6.91026 21.0804 8.02566 20.6932 8.02566 20.6932L31.603 11.3256C31.603 11.3256 33.5412 10.4632 33.5412 11.8932L29.3436 33.3344Z" fill="#F8F8F8"/>
</svg>
