<svg width="44" height="44" viewBox="0 0 44 44" fill="none" xmlns="http://www.w3.org/2000/svg">
<path d="M22 0C34.1506 0 44 9.84939 44 22C44 34.1506 34.1506 44 22 44C18.1121 44.0062 14.2927 42.9773 10.934 41.019L0.00883094 44L2.98323 33.0704C1.02323 29.7107 -0.00646443 25.8896 3.05365e-05 22C3.05365e-05 9.84939 9.84943 0 22 0ZM14.5024 11.66L14.0624 11.6776C13.7776 11.6949 13.4992 11.7698 13.244 11.8976C13.0054 12.0327 12.7875 12.2017 12.5972 12.3992C12.3332 12.6478 12.1836 12.8634 12.023 13.0724C11.2093 14.1304 10.7712 15.4293 10.7778 16.764C10.7822 17.842 11.0638 18.8914 11.5038 19.8726C12.4036 21.857 13.8842 23.958 15.8378 25.905C16.3086 26.3736 16.7706 26.8444 17.2678 27.2822C19.6953 29.4194 22.588 30.9607 25.7158 31.7834L26.9654 31.9748C27.3724 31.9968 27.7794 31.966 28.1886 31.9462C28.8293 31.9131 29.455 31.7396 30.0212 31.438C30.3093 31.2896 30.5905 31.1281 30.8638 30.954C30.8638 30.954 30.9584 30.8924 31.1388 30.756C31.4358 30.536 31.6184 30.3798 31.8648 30.1224C32.0474 29.9332 32.2058 29.711 32.3268 29.458C32.4984 29.0994 32.67 28.4152 32.7404 27.8454C32.7932 27.4098 32.7778 27.1722 32.7712 27.0248C32.7624 26.7894 32.5666 26.5452 32.3532 26.4418L31.0728 25.8676C31.0728 25.8676 29.1588 25.0338 27.9884 24.5014C27.8659 24.4479 27.7347 24.4173 27.6012 24.4112C27.4507 24.3957 27.2986 24.4127 27.1552 24.4609C27.0117 24.509 26.8803 24.5874 26.7696 24.6906C26.7586 24.6862 26.6112 24.8116 25.0206 26.7388C24.9293 26.8615 24.8036 26.9542 24.6594 27.0051C24.5152 27.056 24.3591 27.0629 24.211 27.0248C24.0677 26.9864 23.9273 26.9378 23.7908 26.8796C23.518 26.7652 23.4234 26.7212 23.2364 26.642C21.9738 26.091 20.8047 25.3465 19.7714 24.4354C19.4942 24.1934 19.2368 23.9294 18.9728 23.6742C18.1073 22.8453 17.353 21.9076 16.7288 20.8846L16.599 20.6756C16.5058 20.5352 16.4304 20.3837 16.3746 20.2246C16.291 19.9012 16.5088 19.6416 16.5088 19.6416C16.5088 19.6416 17.0434 19.0564 17.292 18.7396C17.534 18.4316 17.7386 18.1324 17.8706 17.919C18.1302 17.501 18.2116 17.072 18.0752 16.7398C17.4592 15.235 16.8212 13.7368 16.1656 12.2496C16.0358 11.9548 15.6508 11.7436 15.301 11.7018C15.1822 11.6886 15.0634 11.6754 14.9446 11.6666C14.6492 11.6519 14.3531 11.6549 14.058 11.6754L14.5002 11.6578L14.5024 11.66Z" fill="#F8F8F8"/>
</svg>
