<svg width="200" height="200" viewBox="0 0 200 200" fill="none" xmlns="http://www.w3.org/2000/svg">
<path d="M39.7751 110.764H62.007V122H27.663V66.2209H61.1305V77.3767H39.7751V88.3732H59.0587V99.2899H39.7751V110.764ZM96.897 123.195C91.5316 123.195 86.6442 121.947 82.235 119.45C77.8258 116.9 74.3728 113.421 71.8761 109.011C69.3793 104.549 68.1309 99.6087 68.1309 94.1901C68.1309 85.903 70.8667 78.9704 76.3384 73.3925C81.8632 67.8146 88.716 65.0256 96.897 65.0256C103.697 65.0256 109.567 67.0709 114.507 71.1613C119.448 75.2518 122.582 80.6172 123.91 87.2576H111.798C111.054 85.0796 109.965 83.1937 108.531 81.6C107.097 79.9532 105.37 78.7048 103.351 77.8548C101.386 76.9517 99.2344 76.5002 96.897 76.5002C92.169 76.5002 88.2114 78.2001 85.024 81.6C81.8897 84.9467 80.3226 89.1435 80.3226 94.1901C80.3226 99.1837 81.8897 103.354 85.024 106.701C88.2114 110.047 92.169 111.721 96.897 111.721C100.562 111.721 103.723 110.685 106.379 108.613C109.036 106.541 110.868 103.726 111.878 100.166H124.069C122.794 107.072 119.66 112.65 114.667 116.9C109.726 121.097 103.803 123.195 96.897 123.195ZM179.329 122H164.588L144.906 94.7479V122H132.794V66.2209H144.906V91.959L163.153 66.2209H177.257L158.213 92.9152L179.329 122Z" fill="#FF9215"/>
</svg>
