<svg width="46" height="41" viewBox="0 0 46 41" fill="none" xmlns="http://www.w3.org/2000/svg">
<path d="M22.9694 0.500192C22.4159 0.507481 21.8877 0.70646 21.4962 1.05413L1.12333 19.1635C0.292222 19.9018 0.292222 21.0986 1.12333 21.8369L21.4962 39.9462C22.3268 40.6846 23.6732 40.6846 24.5038 39.9462L44.8767 21.8369C45.7078 21.0986 45.7078 19.9018 44.8767 19.1635L24.5038 1.05413C24.0975 0.693341 23.544 0.492903 22.9694 0.500192ZM23 5.06287L27.8823 9.40179C27.2726 10.8471 26.4702 12.1205 25.5802 13.5403C24.8805 14.6576 24.1326 15.8741 23.45 17.3304C23.1984 16.6706 22.8926 16.0694 22.541 15.5432C21.5655 14.0957 19.3723 13.5068 18.1353 12.8559C17.1152 12.3187 15.43 12.8136 15.992 11.2925L23 5.06287ZM29.8595 11.1605L38.5153 18.853C35.6449 19.1591 29.7236 20.42 26.0734 23.5549C23.2835 22.0155 26.0248 17.9521 27.1601 16.135C28.0812 14.6656 29.0693 13.135 29.8595 11.1605ZM11.8095 15.0111C14.0495 15.9805 16.4037 16.5184 18.1645 17.4455C19.172 17.9754 19.9532 18.6234 20.4135 19.3056C20.8734 19.9885 21.0903 20.5971 21.1254 21.8398C21.1947 24.3062 21.5053 26.739 22.0456 29.0476C21.4926 31.6984 20.7735 32.9368 20.2713 33.5118L5.63348 20.5002L11.8095 15.0111Z" fill="#87BD43"/>
</svg>
