<svg width="95" height="48" viewBox="0 0 95 48" fill="none" xmlns="http://www.w3.org/2000/svg">
<path d="M24 0.16748C11.0582 0.16748 0.5 10.7257 0.5 23.6675C0.5 36.6261 11.0414 47.1675 24 47.1675C33.8364 47.1675 39.8424 41.7625 44.4584 35.1019C43.082 32.8862 41.9271 30.6973 40.7857 28.5991C36.6665 35.4041 32.0504 40.4532 24 40.4532C14.741 40.4532 7.21429 32.9265 7.21429 23.6675C7.21429 14.3581 14.6906 6.88177 24 6.88177C29.4285 6.88177 32.8796 8.82219 36.0656 12.129C39.2515 15.4324 41.9406 20.2063 44.6666 25.242C47.3959 30.2777 50.1622 35.5753 54.2143 39.8221C58.2664 44.0722 63.8526 47.1675 71 47.1675C83.9418 47.1675 94.5 36.6093 94.5 23.6675C94.5 10.7089 83.9586 0.16748 71 0.16748C61.2173 0.16748 55.1711 5.40127 50.5416 11.9175C51.918 14.0929 53.1769 16.2314 54.3184 18.3162C58.4107 11.706 62.9764 6.88177 71 6.88177C80.259 6.88177 87.7857 14.4085 87.7857 23.6675C87.7857 32.9768 80.3094 40.4532 71 40.4532C65.6621 40.4532 62.305 38.5128 59.1459 35.206C55.9835 31.9026 53.2844 27.1287 50.5416 22.093C47.8021 17.0573 44.9821 11.7597 40.8898 7.50955C36.7974 3.26277 31.2111 0.16748 24 0.16748Z" fill="#09283D"/>
</svg>
