<svg width="45" height="40" viewBox="0 0 45 40" fill="none" xmlns="http://www.w3.org/2000/svg">
<path d="M45 18.1818C45 28.2727 35.4 37.7091 22.5 40C9.6 37.7091 0 28.2727 0 18.1818V7.27273L22.5 0L45 7.27273V18.1818ZM22.5 36.3636C31.875 34.5455 40 26.4364 40 18.5818V9.63636L22.5 3.96364L5 9.63636V18.5818C5 26.4364 13.125 34.5455 22.5 36.3636ZM22.5 9.09091C24.4891 9.09091 26.3968 9.66558 27.8033 10.6885C29.2098 11.7114 30 13.0988 30 14.5455C30 16.9273 27.925 18.9455 25 19.6909V23.6364H30V27.2727H25V30.9091H20V19.6909C18.5351 19.3171 17.2665 18.6208 16.3705 17.6987C15.4745 16.7766 14.9955 15.6745 15 14.5455C15 13.0988 15.7902 11.7114 17.1967 10.6885C18.6032 9.66558 20.5109 9.09091 22.5 9.09091ZM22.5 12.7273C21.837 12.7273 21.2011 12.9188 20.7322 13.2598C20.2634 13.6008 20 14.0632 20 14.5455C20 15.0277 20.2634 15.4901 20.7322 15.8311C21.2011 16.1721 21.837 16.3636 22.5 16.3636C23.163 16.3636 23.7989 16.1721 24.2678 15.8311C24.7366 15.4901 25 15.0277 25 14.5455C25 14.0632 24.7366 13.6008 24.2678 13.2598C23.7989 12.9188 23.163 12.7273 22.5 12.7273Z" fill="#87BD43"/>
</svg>
