<svg width="49" height="44" viewBox="0 0 49 44" fill="none" xmlns="http://www.w3.org/2000/svg">
<path d="M40.0769 2H43.5385C44.4565 2 45.337 2.32417 45.9861 2.90121C46.6353 3.47824 47 4.26087 47 5.07692V8.15385M2 8.15385V5.07692C2 4.26087 2.3647 3.47824 3.01386 2.90121C3.66303 2.32417 4.54348 2 5.46154 2H8.92308M19.3077 2H29.6923M47 17.3846V26.6154M2 17.3846V26.6154M40.0769 42H43.5385C44.4565 42 45.337 41.6758 45.9861 41.0988C46.6353 40.5218 47 39.7391 47 38.9231V35.8462M2 35.8462V38.9231C2 39.7391 2.3647 40.5218 3.01386 41.0988C3.66303 41.6758 4.54348 42 5.46154 42H8.92308M19.3077 42H29.6923" stroke="#7EB43A" stroke-width="4" stroke-linecap="round" stroke-linejoin="round"/>
</svg>
