<svg width="45" height="45" viewBox="0 0 45 45" fill="none" xmlns="http://www.w3.org/2000/svg">
<path d="M40.5 0H4.5C3.30653 0 2.16193 0.474106 1.31802 1.31802C0.474106 2.16193 0 3.30653 0 4.5V40.5C0 41.6935 0.474106 42.8381 1.31802 43.682C2.16193 44.5259 3.30653 45 4.5 45H40.5C41.6935 45 42.8381 44.5259 43.682 43.682C44.5259 42.8381 45 41.6935 45 40.5V4.5C45 3.30653 44.5259 2.16193 43.682 1.31802C42.8381 0.474106 41.6935 0 40.5 0ZM39.6 35.775L9.225 5.4H39.6V35.775ZM5.4 9.225L35.775 39.6H5.4V9.225Z" fill="#94C45A"/>
</svg>
